<?xml version="1.0" encoding="UTF-8" standalone="no"?>
<svg
   xmlns:dc="http://purl.org/dc/elements/1.1/"
   xmlns:cc="http://creativecommons.org/ns#"
   xmlns:rdf="http://www.w3.org/1999/02/22-rdf-syntax-ns#"
   xmlns:svg="http://www.w3.org/2000/svg"
   xmlns="http://www.w3.org/2000/svg"
   xmlns:sodipodi="http://sodipodi.sourceforge.net/DTD/sodipodi-0.dtd"
   xmlns:inkscape="http://www.inkscape.org/namespaces/inkscape"
   inkscape:export-ydpi="6"
   inkscape:export-xdpi="6"
   inkscape:export-filename="C:\Users\Davy\Downloads\ql-logo-big.png"
   inkscape:version="1.0 (4035a4fb49, 2020-05-01)"
   sodipodi:docname="ql logo.svg"
   version="1.1"
   width="512"
   viewBox="0 0 511.998 511.998"
   height="512"
   enable-background="new 0 0 511.998 511.998"
   id="Capa_1">
  <metadata
     id="metadata15">
    <rdf:RDF>
      <cc:Work
         rdf:about="">
        <dc:format>image/svg+xml</dc:format>
        <dc:type
           rdf:resource="http://purl.org/dc/dcmitype/StillImage" />
        <dc:title></dc:title>
      </cc:Work>
    </rdf:RDF>
  </metadata>
  <defs
     id="defs13">
    <rect
       id="rect842"
       height="154.10143"
       width="227.37745"
       y="358.30491"
       x="221.70117" />
  </defs>
  <sodipodi:namedview
     inkscape:current-layer="Capa_1"
     inkscape:window-maximized="1"
     inkscape:window-y="-8"
     inkscape:window-x="-8"
     inkscape:cy="581.43847"
     inkscape:cx="686.37054"
     inkscape:zoom="0.66981795"
     showgrid="false"
     id="namedview11"
     inkscape:window-height="1137"
     inkscape:window-width="1920"
     inkscape:pageshadow="2"
     inkscape:pageopacity="0"
     guidetolerance="10"
     gridtolerance="10"
     objecttolerance="10"
     borderopacity="1"
     bordercolor="#666666"
     pagecolor="#ffffff" />
  <g
     id="g8">
    <g
       style="opacity:1"
       id="g854">
      <path
         sodipodi:nodetypes="sccccccccccccscccccsscccccccccccccccscccccccccscccccccccccsscccsccccccccccccsccccccccccccccccscccccccscscccccccccccccccccccccccccscscscccccccccccccccccc"
         id="path856"
         d="m 503.866,169.133 c -9.995,-8.883 -25.354,-7.978 -34.24,2.019 -15.431,17.364 -16.193,41.287 -16.866,62.395 -1.148,35.947 -3.371,55.146 -38.229,64.602 -14.634,3.97 -29.357,2.763 -44.007,-3.557 36.467,-17.953 60.054,-56.195 56.84,-99.239 2.669,-16.81 0.456,-33.365 -2.108,-48.971 -0.672,-4.087 -4.533,-6.857 -8.616,-6.185 -4.088,0.672 -6.856,4.53 -6.185,8.617 2.661,16.195 4.819,32.305 1.346,48.261 -7.997,36.767 -49.615,61.088 -86.228,61.616 -15.62,-15.13 -21.924,-15.3 -22.429,-24.845 20.113,7.281 39.583,3.569 58.564,-6.67 35.343,-19.066 33.363,-42.612 27.206,-79.452 -2.923,-17.49 -5.945,-35.575 -1.882,-52.924 4.775,-20.394 18.46,-35.888 41.836,-47.368 5.226,-2.569 11.535,-0.415 14.102,4.813 2.562,5.214 0.402,11.541 -4.813,14.102 -22.667,11.133 -31.942,24.526 -32.013,46.228 -0.014,4.142 3.334,7.511 7.476,7.524 h 0.025 c 4.13,0 7.485,-3.342 7.499,-7.476 0.044,-13.455 3.924,-23.137 23.625,-32.813 12.639,-6.207 17.872,-21.539 11.665,-34.178 -6.223,-12.672 -21.512,-17.887 -34.179,-11.665 -27.664,13.586 -43.963,32.366 -49.828,57.412 -4.749,20.276 -1.475,39.869 1.692,58.817 6.168,36.907 6.014,49.996 -19.532,63.778 -15.771,8.507 -31.732,11.699 -48.197,5.039 0.984,-1.556 2.453,-2.769 4.137,-3.385 22.867,-8.368 28.814,-37.252 12.628,-54.353 -1.71,-1.807 -2.22,-4.402 -1.33,-6.771 6.62,-17.616 8.077,-37.069 4.6,-55.481 -0.77,-4.071 -4.689,-6.744 -8.763,-5.978 -4.069,0.769 -6.746,4.692 -5.978,8.762 2.95,15.605 1.784,32.292 -3.9,47.422 -2.925,7.783 -1.209,16.35 4.477,22.357 8.928,9.432 5.621,25.378 -6.89,29.957 -13.494,4.942 -18.718,21.437 -17.017,35.454 0.998,8.261 5.869,15.331 12.719,20.416 24.854,18.443 45.741,45.559 47.677,76.045 0.502,12.122 -2.642,20.882 -3.478,23.669 -15.779,49.074 9.075,84.49 51.852,96.383 2.855,0.794 4.882,3.223 4.926,5.907 0.068,4.024 -3.672,7.002 -7.549,6.06 -32.373,-7.828 -85.059,-28.976 -74.188,-82.651 12.065,-59.566 -19.459,-103.905 -64.304,-103.905 -43.36,0 -76.768,42.369 -64.303,103.904 10.871,53.677 -41.815,74.824 -74.188,82.652 -3.872,0.942 -7.615,-2.029 -7.549,-6.06 0.045,-2.684 2.07,-5.113 4.927,-5.907 10.47,-2.911 36.229,-12.312 49.247,-36.667 10.233,-19.144 8.952,-39.813 2.363,-60.497 -12.297,-37.382 13.297,-75.821 44.44,-98.934 14.781,-10.973 16.34,-28.59 8.555,-44.295 -2.682,-5.41 -7.247,-9.521 -12.855,-11.575 -12.484,-4.569 -15.832,-20.506 -6.889,-29.957 5.686,-6.007 7.401,-14.574 4.477,-22.357 C 192.81438,118.83426 199.99975,85.270391 217.62576,65.001585 227.58028,53.554515 240.86492,46.348 256.009,46.348 c 16.86,0 32.812,9.378 43.763,25.729 2.304,3.441 6.961,4.363 10.405,2.058 3.441,-2.305 4.362,-6.963 2.058,-10.405 -13.782,-20.579 -34.276,-32.382 -56.226,-32.382 -52.599,0 -87.375,65.788 -65.816,123.155 0.89,2.37 0.381,4.964 -1.33,6.771 -16.186,17.103 -10.238,45.984 12.627,54.353 1.684,0.617 3.154,1.829 4.138,3.385 -16.505,6.675 -32.471,3.443 -48.198,-5.039 -25.545,-13.781 -25.699,-26.871 -19.532,-63.778 3.168,-18.947 6.443,-38.539 1.692,-58.817 C 133.725,66.332 117.426,47.553 89.763,33.966 77.09,27.743 61.803,32.96 55.581,45.63 c -6.206,12.639 -0.974,27.971 11.665,34.178 26.938,13.23 26.245,26.254 20.276,61.968 -2.885,17.257 -5.842,35.056 -2.872,53.591 -0.192,2.57 -0.305,5.139 -0.305,7.649 0,22.383 7.116,43.627 20.58,61.436 9.64,12.752 22.292,23.113 36.564,30.139 -14.651,6.321 -29.375,7.528 -44.006,3.558 C 62.626,288.694 60.403,269.495 59.254,233.547 58.58,212.44 57.816,188.515 42.387,171.152 33.483,161.133 18.169,160.228 8.147,169.133 c -10.02,8.907 -10.921,24.219 -2.018,34.24 3.732,4.199 4.14,17.314 4.534,29.998 0.615,19.803 1.407,45.061 13.157,67.168 5.111,20.909 17.125,39.847 33.978,53.446 27.127,21.887 64.19,27.895 96.833,15.566 8.454,36.631 -11.907,60.649 -43.758,69.505 -9.21,2.562 -15.751,10.83 -15.905,20.109 -0.228,13.836 12.638,24.133 26.072,20.889 54.453,-13.168 96.432,-45.565 85.364,-100.21 -1.639,-8.09 -2.396,-15.827 -2.318,-23.207 12.064,-21.051 31.357,-33.565 51.92,-33.565 20.563,0 39.856,12.514 51.92,33.565 0.078,7.38 -0.679,15.117 -2.318,23.207 -11.074,54.672 30.95,87.05 85.363,100.209 13.418,3.248 26.302,-7.045 26.072,-20.889 -0.153,-9.279 -6.694,-17.549 -15.905,-20.109 -31.77,-8.834 -52.243,-32.741 -43.758,-69.506 55.122,20.819 116.721,-11.362 130.811,-69.012 11.75,-22.107 12.542,-47.364 13.157,-67.167 0.394,-12.684 0.802,-25.799 4.534,-29.999 8.886,-9.994 7.98,-25.354 -2.016,-34.238 z M 99.578,193.776 C 90.804,143.323 132.924,95.351 73.858,66.344 68.643,63.783 66.484,57.457 69.046,52.242 c 2.555,-5.205 8.848,-7.393 14.102,-4.813 23.375,11.48 37.06,26.975 41.835,47.369 11.597,49.496 -33.14,100.835 25.324,132.375 18.868,10.179 38.321,13.98 58.564,6.671 -0.516,9.602 -6.837,9.743 -22.431,24.848 -30.707,-0.445 -79.302,-21.445 -86.862,-64.916 z M 59.131,335.06 c 25.052,13.251 57.489,18.702 89.423,8.617 0.374,3.729 1.02,7.525 1.982,11.382 -30.544,12.072 -67.241,5.317 -91.405,-19.999 z m 89.448,-7.24 c -24.338,8.873 -48.598,7.917 -72.507,-1.497 C 2.704,297.384 38.461,217.173 17.343,193.409 c -3.398,-3.822 -3.054,-9.664 0.77,-13.063 3.819,-3.394 9.665,-3.053 13.062,0.77 30.867,34.732 -14.483,110.66 62.381,131.509 20.408,5.537 40.693,3.041 60.558,-7.397 -2.746,7.084 -4.718,14.641 -5.535,22.592 z m -40.391,-86.826 c 15.073,14.65 40.159,28.052 65.105,31.667 -5.836,5.587 -10.628,9.298 -15.286,12.612 -22.107,-7.62 -39.851,-23.905 -49.819,-44.279 z m 147.819,67.079 c -16.623,0 -32.476,6.251 -45.609,17.481 9.136,-21.164 26.398,-31.636 45.609,-31.636 18.856,0 36.422,10.36 45.609,31.638 -13.133,-11.233 -28.985,-17.483 -45.609,-17.483 z m 98,-22.8 c -4.984,-3.483 -10.116,-7.664 -15.286,-12.612 24.313,-3.523 49.751,-16.744 65.107,-31.668 -9.97,20.373 -27.714,36.66 -49.821,44.28 z m 7.471,69.786 c 0.961,-3.857 1.608,-7.653 1.982,-11.382 20.54,6.482 42.075,7.168 63.77,1.286 h -0.001 c 8.825,-2.394 17.569,-5.626 25.655,-9.903 -24.16,25.312 -60.85,32.072 -91.406,19.999 z m 133.194,-161.65 c -15.637,17.595 -0.236,64.195 -20.031,100.497 -18.306,33.62 -68.614,49.445 -111.205,33.918 -0.816,-7.952 -2.789,-15.51 -5.535,-22.596 19.866,10.438 40.152,12.934 60.556,7.397 76.877,-20.851 31.514,-96.772 62.381,-131.508 3.389,-3.814 9.25,-4.161 13.063,-0.771 3.815,3.39 4.16,9.249 0.771,13.063 z"
         style="color:#000000;font-style:normal;font-variant:normal;font-weight:normal;font-stretch:normal;font-size:medium;line-height:normal;font-family:sans-serif;font-variant-ligatures:normal;font-variant-position:normal;font-variant-caps:normal;font-variant-numeric:normal;font-variant-alternates:normal;font-variant-east-asian:normal;font-feature-settings:normal;font-variation-settings:normal;text-indent:0;text-align:start;text-decoration:none;text-decoration-line:none;text-decoration-style:solid;text-decoration-color:#000000;letter-spacing:normal;word-spacing:normal;text-transform:none;writing-mode:lr-tb;direction:ltr;text-orientation:mixed;dominant-baseline:auto;baseline-shift:baseline;text-anchor:start;white-space:normal;shape-padding:0;shape-margin:0;inline-size:0;clip-rule:nonzero;display:inline;overflow:visible;visibility:visible;isolation:auto;mix-blend-mode:normal;color-interpolation:sRGB;color-interpolation-filters:linearRGB;solid-color:#000000;solid-opacity:1;vector-effect:none;fill:#1d65a6;fill-opacity:1;fill-rule:nonzero;stroke:none;stroke-width:1;stroke-linecap:butt;stroke-linejoin:miter;stroke-miterlimit:4;stroke-dasharray:none;stroke-dashoffset:0;stroke-opacity:1;color-rendering:auto;image-rendering:auto;shape-rendering:auto;text-rendering:auto;enable-background:accumulate;stop-color:#000000;stop-opacity:1" />
      <path
         id="path858"
         d="M 256.00977 30.847656 C 229.50181 30.847656 207.49124 47.432823 194.84961 71.177734 C 182.20798 94.922646 178.89182 125.8544 189.72461 154.67969 C 190.55034 156.87854 190.08078 159.26021 188.5 160.92969 C 172.0788 178.28121 178.13097 207.6087 201.31836 216.0957 C 202.68598 216.59678 203.85382 217.57948 204.75977 218.77539 C 188.65455 225.02624 173.09884 221.85549 157.66797 213.5332 C 144.95332 206.67391 138.67861 200.09295 136.25586 190.63281 C 133.83311 181.17268 135.30882 168.7207 138.39062 150.27734 C 141.55863 131.33033 144.85513 111.661 140.07617 91.263672 C 134.17693 66.071465 117.74125 47.150686 89.984375 33.517578 L 89.982422 33.517578 C 77.067382 27.175726 61.47371 32.498043 55.132812 45.410156 C 48.807299 58.292554 54.142972 73.929317 67.025391 80.255859 C 80.434596 86.841492 86.83313 93.268456 89.240234 102.48633 C 91.647339 111.7042 90.012686 123.843 87.029297 141.69336 C 84.146971 158.93436 81.178375 176.77612 84.150391 195.39258 C 83.960478 197.95177 83.845703 200.51115 83.845703 203.01562 C 83.845703 225.5046 90.997144 246.85993 104.52539 264.75391 C 113.98466 277.26683 126.35465 287.43296 140.28125 294.48047 C 126.05602 300.38739 111.80204 301.51602 97.613281 297.66602 C 80.264715 292.9602 71.169028 285.90645 66.177734 275.56641 C 61.186441 265.22636 60.328168 251.4978 59.753906 233.53125 C 59.079906 212.42425 58.336765 188.34767 42.761719 170.82031 L 42.759766 170.82031 C 33.676596 160.59971 18.038083 159.67561 7.8144531 168.75977 C -2.4070885 177.84592 -3.3262307 193.4825 5.7558594 203.70508 C 7.4561554 205.61814 8.5363869 209.88965 9.1503906 215.24609 C 9.7643943 220.60254 9.9670627 227.04473 10.164062 233.38672 C 10.778462 253.17039 11.561216 278.48464 23.347656 300.70703 C 28.49186 321.70439 40.558456 340.71716 57.484375 354.375 C 84.595159 376.24892 121.56842 382.30552 154.24219 370.19141 C 158.26278 388.15533 155.30831 402.97809 147.45312 414.43555 C 139.51961 426.00724 126.57788 434.1701 110.73828 438.57422 C 101.31958 441.19427 94.626566 449.6473 94.46875 459.15625 C 94.235577 473.30617 107.41872 483.85683 121.1582 480.53906 C 148.44723 473.93994 172.63904 462.52486 188.65234 445.84961 C 204.66565 429.17436 212.45676 407.20603 206.89453 379.74414 C 205.27137 371.73231 204.52423 364.07713 204.5918 356.77344 C 216.58817 335.91887 235.68382 323.57227 256.00586 323.57227 C 276.3279 323.57227 295.42355 335.91887 307.41992 356.77344 C 307.48749 364.07713 306.74035 371.73231 305.11719 379.74414 C 299.55194 407.21957 307.35228 429.18862 323.37109 445.86133 C 339.38991 462.53404 363.58453 473.94445 390.85352 480.53906 C 404.57742 483.86111 417.77819 473.31446 417.54297 459.15625 C 417.38618 449.64727 410.69132 441.19226 401.27148 438.57422 C 385.47194 434.18098 372.52342 426.0501 364.57617 414.49219 C 356.70802 403.0493 353.7338 388.22241 357.76758 370.19531 C 412.99866 390.68135 474.51266 358.41924 488.65625 300.72266 C 500.4514 278.49614 501.2331 253.17354 501.84766 233.38477 C 502.04466 227.04277 502.24537 220.60266 502.85938 215.24609 C 503.47338 209.88952 504.5555 205.61672 506.25586 203.70312 C 515.32211 193.5064 514.39595 177.8239 504.19727 168.75977 C 493.99955 159.6966 478.31806 160.62068 469.25195 170.82031 C 453.67491 188.34865 452.93277 212.42326 452.25977 233.53125 C 451.686 251.4973 450.82723 265.22441 445.83594 275.56445 C 440.84465 285.90449 431.74946 292.9597 414.40039 297.66602 C 400.21973 301.51303 385.97884 300.38601 371.76562 294.49219 C 407.80506 276.24684 431.04741 238.17452 427.86523 195.35352 C 430.52957 178.47813 428.31173 161.89298 425.75 146.30078 C 425.03412 141.94692 420.90869 138.98717 416.55859 139.70312 C 412.20399 140.41895 409.24617 144.54096 409.96094 148.89453 C 412.62035 165.07986 414.76147 181.12315 411.3125 196.96875 C 403.39558 233.36759 362.10298 257.57862 325.75 258.18164 C 318.02127 250.72005 312.54351 246.86486 309.01953 243.79688 C 305.67393 240.88419 304.12701 238.67577 303.74609 234.54492 C 323.73374 241.50791 343.12592 237.76706 361.94531 227.61523 C 379.69594 218.03955 388.17282 207.2451 391.35938 194.23438 C 394.54593 181.22365 392.48617 166.06911 389.40625 147.64062 C 386.48325 130.15063 383.48667 112.13436 387.51953 94.914062 C 392.259 74.671799 405.80236 59.316428 429.08789 47.880859 C 434.07161 45.430959 440.07339 47.479008 442.52148 52.464844 C 444.96383 57.435323 442.90906 63.456985 437.9375 65.898438 C 426.55701 71.488017 418.49098 77.667333 413.26562 85.212891 C 408.04027 92.758448 405.68026 101.65233 405.64453 112.57422 C 405.62962 116.98657 409.20687 120.58576 413.61914 120.59961 L 413.64453 120.59961 C 418.04426 120.59961 421.62962 117.0286 421.64453 112.625 C 421.66638 105.94517 422.63217 100.27961 426.00391 95.070312 C 429.37564 89.861014 435.18731 85.0744 444.99023 80.259766 C 457.87264 73.933228 463.20935 58.294527 456.88281 45.412109 C 450.54091 32.497978 434.94429 27.176642 422.03516 33.517578 C 394.27726 47.149691 377.83869 66.073421 371.93945 91.265625 C 367.16251 111.66094 370.458 131.33128 373.625 150.2793 C 376.7073 168.72265 378.18447 181.17281 375.76172 190.63281 C 373.33897 200.09281 367.06477 206.67341 354.34961 213.5332 C 338.87557 221.88002 323.32495 225.01321 307.25781 218.77539 C 308.16365 217.5792 309.33198 216.59779 310.69922 216.09766 C 333.88865 207.61167 339.93883 178.28119 323.51758 160.93164 C 321.93773 159.26217 321.46736 156.87729 322.29297 154.67969 C 328.94711 136.97284 330.40966 117.42982 326.91602 98.929688 C 326.09587 94.593551 321.90914 91.736941 317.57031 92.552734 L 317.56836 92.552734 C 313.23379 93.371925 310.37525 97.564826 311.19336 101.90039 C 314.12681 117.41784 312.96576 134.01496 307.31641 149.05273 C 304.32625 157.00912 306.08381 165.7868 311.89844 171.92969 C 320.59065 181.11259 317.38508 196.61422 305.19922 201.07422 C 298.3031 203.59983 293.52592 209.08118 290.70508 215.66992 C 287.88423 222.25866 286.99672 229.96409 287.85742 237.05664 C 288.87458 245.47624 293.83838 252.66486 300.77539 257.81445 C 325.54545 276.19517 346.32253 303.20564 348.25 333.47852 C 348.74802 345.50433 345.64525 354.14116 344.79297 356.98242 L 344.79688 356.97461 C 336.87323 381.61781 339.14218 402.90785 348.80664 419.51367 C 358.4711 436.11949 375.50241 448.01807 396.99023 453.99219 C 399.65048 454.73203 401.51083 456.98848 401.55078 459.42578 C 401.61348 463.13594 398.18952 465.85773 394.61914 464.99023 C 378.47239 461.08585 357.26812 453.85096 341.50781 440.95703 C 325.74751 428.0631 315.40097 409.59674 320.80273 382.92578 C 326.85685 353.03608 321.98252 326.9232 309.92188 308.26562 C 297.86123 289.60805 278.59705 278.42188 256.00977 278.42188 C 234.16691 278.42188 214.80653 289.1084 202.50781 307.51953 C 190.2091 325.93066 184.96261 352.04925 191.2168 382.92383 C 196.61857 409.59579 186.27202 428.06311 170.51172 440.95703 C 154.75141 453.85096 133.54714 461.08585 117.40039 464.99023 C 113.83494 465.85766 110.40788 463.14337 110.46875 459.42578 C 110.50962 456.98811 112.36704 454.73207 115.0293 453.99219 C 125.56305 451.06346 151.46194 441.62778 164.58398 417.07812 C 174.89569 397.78687 173.59497 376.95129 166.98242 356.19336 L 166.98242 356.19141 L 166.98047 356.18945 C 160.88004 337.64459 164.17097 318.84047 172.88086 301.75586 C 181.59075 284.67125 195.72652 269.33096 211.24414 257.81445 L 211.24414 257.8125 C 226.21729 246.69686 227.8121 228.75664 219.94922 212.89453 C 217.21171 207.37255 212.54639 203.17023 206.81836 201.07227 C 194.66019 196.62252 191.41519 181.13175 200.12109 171.92969 L 200.12109 171.92773 C 205.93485 165.78488 207.6901 157.00856 204.70117 149.05273 C 195.81902 125.41257 198.26353 99.826989 208.13281 80.177734 C 218.00209 60.52848 235.25001 46.847656 256.00977 46.847656 C 272.68436 46.847656 288.48216 56.117554 299.35742 72.355469 C 301.81175 76.02098 306.78672 77.005942 310.45508 74.550781 C 314.12058 72.095398 315.10464 67.11764 312.65039 63.451172 C 298.79005 42.755202 278.13901 30.847656 256.00977 30.847656 z M 256.00977 31.847656 C 277.78052 31.847656 298.11665 43.545783 311.82031 64.007812 C 313.97406 67.225344 313.11494 71.564133 309.89844 73.71875 C 306.6788 75.873589 302.34117 75.015317 300.1875 71.798828 C 289.16076 55.334742 273.05517 45.847656 256.00977 45.847656 C 234.81052 45.847656 217.234 59.82752 207.23828 79.728516 C 197.24256 99.629511 194.77877 125.48546 203.76562 149.4043 C 206.62451 157.01396 204.95188 165.3711 199.39453 171.24219 C 190.21584 180.94227 193.6653 197.32366 206.47461 202.01172 C 211.96258 204.02176 216.42625 208.04182 219.05273 213.33984 C 226.75986 228.88773 225.23729 246.17941 210.64844 257.00977 C 195.02306 268.60625 180.78885 284.04214 171.99023 301.30078 C 163.19162 318.55942 159.83468 337.66482 166.03125 356.50195 C 172.59555 377.11063 173.85478 397.61194 163.70117 416.60742 C 150.78722 440.76777 125.16796 450.13407 114.76172 453.02734 C 111.70997 453.87547 109.51788 456.47787 109.46875 459.4082 C 109.39763 463.75192 113.45693 466.97795 117.63477 465.96289 C 133.86101 462.03928 155.18634 454.78629 171.14453 441.73047 C 187.10273 428.67464 197.66454 409.7316 192.19531 382.72656 C 185.9845 352.06614 191.21081 326.23134 203.33984 308.07422 C 215.46888 289.9171 234.49262 279.42188 256.00977 279.42188 C 278.26748 279.42188 297.18568 290.40517 309.08203 308.80859 C 320.97839 327.21202 325.83315 353.05026 319.82227 382.72656 C 314.35303 409.73061 324.91485 428.67465 340.87305 441.73047 C 356.83124 454.78629 378.15656 462.03928 394.38281 465.96289 C 398.56643 466.97939 402.62408 463.74605 402.55078 459.4082 C 402.50274 456.47751 400.30757 453.87551 397.25781 453.02734 C 375.96864 447.10846 359.18392 435.3537 349.67188 419.00977 C 340.15983 402.66583 337.89269 381.7101 345.74805 357.2793 L 345.75 357.27539 L 345.75 357.27148 C 346.56972 354.53875 349.75598 345.65568 349.25 333.4375 L 349.25 333.43164 L 349.24805 333.42578 C 347.29882 302.73149 326.30578 275.51459 301.37109 257.01172 C 294.60811 251.99131 289.82845 245.0399 288.84961 236.9375 C 288.00931 230.01305 288.88364 222.46296 291.62305 216.06445 C 294.36245 209.66594 298.94508 204.42811 305.54297 202.01172 C 318.3791 197.31372 321.78878 180.92328 312.625 171.24219 C 307.06763 165.37108 305.39211 157.01391 308.25195 149.4043 C 313.9706 134.18207 315.14233 117.4074 312.17578 101.71484 C 311.45789 97.910408 313.95048 94.255919 317.75391 93.537109 C 321.56308 92.820903 325.21374 95.309371 325.93359 99.115234 C 329.39395 117.43911 327.94328 136.80297 321.35742 154.32812 C 320.40303 156.86852 320.95087 159.67461 322.79102 161.61914 C 338.74177 178.47159 332.90004 206.90819 310.35547 215.1582 C 308.56069 215.81472 307.00821 217.09931 305.9668 218.74609 L 305.64648 219.25195 L 306.20312 219.47656 C 322.82374 226.19951 338.97516 222.96317 354.82422 214.41406 C 367.65506 207.49186 374.23172 200.63761 376.73047 190.88086 C 379.22922 181.12411 377.69702 168.57693 374.61133 150.11328 C 371.44433 131.16529 368.19301 111.64887 372.91406 91.492188 C 378.74483 66.592391 394.9045 47.955903 422.47461 34.416016 C 434.89947 28.312952 449.88028 33.421694 455.98438 45.851562 C 462.07183 58.247145 456.94442 73.273866 444.54883 79.361328 C 434.65075 84.222693 428.67053 89.112892 425.16602 94.527344 C 421.6615 99.941795 420.66669 105.84593 420.64453 112.62109 C 420.63144 116.48549 417.5048 119.59961 413.64453 119.59961 L 413.62109 119.59961 L 413.61914 119.59961 C 409.74834 119.58638 406.63145 116.44716 406.64453 112.57617 C 406.6798 101.79606 408.99125 93.142895 414.08789 85.783203 C 419.18453 78.423511 427.09044 72.338342 438.37695 66.794922 C 443.83539 64.114375 446.09963 57.482912 443.41797 52.025391 C 440.73206 46.555226 434.11476 44.294323 428.64648 46.982422 C 405.18098 58.506778 391.35534 74.140276 386.54492 94.685547 C 382.45178 112.16325 385.49692 130.31663 388.41992 147.80664 C 391.497 166.21815 393.50862 181.25732 390.38867 193.99609 C 387.26873 206.73487 379.06307 217.24601 361.4707 226.73633 C 342.571 236.93147 323.2792 240.60233 303.31445 233.375 L 302.60547 233.11914 L 302.64453 233.87305 C 302.90282 238.755 304.732 241.39109 308.36133 244.55078 C 311.99065 247.71048 317.43808 251.50852 325.22461 259.05078 L 325.37305 259.19336 L 325.58008 259.19141 C 362.40897 258.66029 404.22523 234.25593 412.28906 197.18164 C 415.78609 181.11524 413.61181 164.93709 410.94922 148.73242 C 410.32198 144.91199 412.8993 141.31763 416.7207 140.68945 C 420.53661 140.06141 424.1336 142.64275 424.76172 146.46289 C 427.32401 162.05849 429.52541 178.55788 426.87109 195.27539 L 426.86133 195.33203 L 426.86523 195.39062 C 430.06407 238.23155 406.59395 276.27612 370.30273 294.14258 L 369.33203 294.62109 L 370.32617 295.05078 C 385.06679 301.40987 399.92161 302.62975 414.66211 298.63086 C 432.17104 293.88118 441.61462 286.61021 446.73633 276 C 451.85804 265.38979 452.68553 251.54345 453.25977 233.5625 C 453.93277 212.45449 454.71505 188.68403 470 171.48438 C 478.70589 161.69 493.74092 160.80302 503.5332 169.50586 C 513.32652 178.20972 514.21356 193.24779 505.50781 203.03906 C 503.47618 205.32547 502.48868 209.71088 501.86719 215.13281 C 501.24569 220.55474 501.04466 227.01151 500.84766 233.35352 C 500.23266 253.15639 499.4303 278.32688 487.75 300.30273 L 487.7207 300.35742 L 487.70508 300.41797 C 473.68468 357.78317 412.40413 389.79735 357.55664 369.08203 L 357.02148 368.87891 L 356.89258 369.4375 C 352.62492 387.929 355.64145 403.26326 363.75195 415.05859 C 371.86245 426.85393 385.03345 435.09635 401.00391 439.53711 C 410.00607 442.03907 416.39376 450.12286 416.54297 459.17188 C 416.76775 472.70167 404.19999 482.74036 391.08789 479.56641 C 363.94387 473.00202 339.91973 461.64396 324.0918 445.16992 C 308.26386 428.69588 300.5889 407.13993 306.09766 379.94336 C 307.74303 371.82192 308.50418 364.04874 308.42578 356.63086 L 308.42383 356.50195 L 308.35938 356.38867 C 296.22353 335.21231 276.77172 322.57227 256.00586 322.57227 C 235.24 322.57227 215.78818 335.21231 203.65234 356.38867 L 203.58789 356.50195 L 203.58594 356.63086 C 203.50754 364.04874 204.26869 371.82192 205.91406 379.94336 C 211.41983 407.12647 203.75409 428.67975 187.93164 445.15625 C 172.10919 461.63275 148.08585 472.99948 120.92188 479.56836 C 107.79335 482.73859 95.245923 472.6959 95.46875 459.17383 C 95.618934 450.12478 102.00651 442.04105 111.00781 439.53711 C 127.01922 435.08522 140.18306 426.81101 148.2793 415.00195 C 156.37554 403.1929 159.3713 387.86399 155.11914 369.43945 L 154.99023 368.88086 L 154.45508 369.08398 C 121.97934 381.34981 85.099913 375.37103 58.111328 353.5957 C 41.344503 340.06624 29.391262 321.22101 24.306641 300.41992 L 24.291016 300.35938 L 24.261719 300.30469 C 12.581425 278.32884 11.777105 253.15834 11.162109 233.35547 C 10.965109 227.01346 10.766028 220.55462 10.144531 215.13281 C 9.523035 209.71101 8.5336571 205.32695 6.5019531 203.04102 C -2.2219568 193.2216 -1.3399427 178.2337 8.4785156 169.50586 C 18.298886 160.78002 33.288841 161.66698 42.013672 171.48438 C 57.296625 188.68302 58.079906 212.4555 58.753906 233.5625 C 59.328644 251.54395 60.155637 265.38979 65.277344 276 C 70.39905 286.61021 79.843129 293.88168 97.351562 298.63086 C 112.0891 302.62977 126.94588 301.41088 141.6875 295.05078 L 142.68164 294.62109 L 141.70898 294.14258 C 127.50669 287.15089 114.91588 276.83844 105.32422 264.15039 C 91.924465 246.42637 84.845703 225.29265 84.845703 203.01562 C 84.845703 200.52063 84.957196 197.96415 85.148438 195.4043 L 85.152344 195.3457 L 85.144531 195.28711 C 82.190647 176.85268 85.130683 159.11603 88.015625 141.85938 C 91.001235 123.99573 92.695677 111.7645 90.207031 102.23438 C 87.718386 92.704247 80.995592 86.003742 67.466797 79.359375 C 55.071215 73.271917 49.94281 58.245211 56.029297 45.849609 C 62.1324 33.421723 77.112008 28.309914 89.542969 34.414062 C 117.11209 47.954954 133.27275 66.592394 139.10352 91.492188 C 143.82656 111.65086 140.57229 131.1663 137.4043 150.11328 C 134.3191 168.57693 132.78836 181.12399 135.28711 190.88086 C 137.78586 200.63773 144.36301 207.4904 157.19336 214.41211 C 172.99809 222.93603 189.1555 226.21266 205.81641 219.47461 L 206.37109 219.25 L 206.05078 218.74414 C 205.00924 217.09715 203.45646 215.81563 201.66211 215.1582 C 179.1195 206.9072 173.27576 178.47167 189.22656 161.61719 C 191.06778 159.67266 191.61443 156.86927 190.66016 154.32812 L 190.66016 154.32617 C 179.93394 125.78446 183.22606 95.139276 195.73242 71.648438 C 208.23879 48.157599 229.91872 31.847656 256.00977 31.847656 z M 79.117188 45.863281 C 74.816522 45.625075 70.602916 47.936405 68.597656 52.021484 C 65.916077 57.47989 68.178307 64.112433 73.636719 66.792969 C 88.333167 74.010317 96.67182 82.363051 101.11133 91.613281 C 105.55084 100.86351 106.10084 111.05324 105.08008 121.9707 C 103.03855 143.80563 94.671215 168.47542 99.085938 193.86133 C 102.89459 215.76161 117.04291 231.99728 134.06055 242.79102 C 151.07819 253.58476 170.96997 258.96731 186.43359 259.19141 L 186.63867 259.19531 L 186.78711 259.05078 C 194.56042 251.52123 200.00678 247.73859 203.63867 244.58203 C 207.27057 241.42547 209.10723 238.78121 209.37109 233.87109 L 209.41016 233.11719 L 208.70117 233.37305 C 188.60649 240.62849 169.33231 236.86793 150.54492 226.73242 C 136.00226 218.88699 127.93849 209.85988 123.77734 199.95117 C 119.61619 190.04246 119.35733 179.21349 120.56641 167.77148 C 122.98455 144.88748 131.31054 119.60801 125.4707 94.683594 C 120.66018 74.137861 106.83462 58.504906 83.369141 46.980469 C 81.995094 46.305737 80.550743 45.942683 79.117188 45.863281 z M 79.056641 46.857422 C 80.360554 46.930738 81.674781 47.261685 82.927734 47.876953 C 106.21225 59.312516 119.75662 74.669842 124.49609 94.912109 C 130.25326 119.48369 122.00737 144.62152 119.57227 167.66602 C 118.35471 179.18826 118.5994 190.20316 122.85547 200.33789 C 127.11154 210.47262 135.38098 219.68872 150.07031 227.61328 C 168.7782 237.7059 188.15437 241.5317 208.26758 234.54297 C 207.88186 238.70043 206.33083 240.916 202.98242 243.82617 C 199.45762 246.88966 193.98114 250.73197 186.26953 258.17578 C 171.04904 257.91844 151.38275 252.59351 134.59766 241.94727 C 117.75105 231.26201 103.82166 215.26017 100.07031 193.68945 C 95.711035 168.62237 104.0177 144.08053 106.07617 122.06445 C 107.10541 111.05642 106.56121 100.66104 102.01172 91.181641 C 97.462227 81.702246 88.914676 73.180683 74.078125 65.894531 C 69.106537 63.453067 67.05172 57.434485 69.494141 52.462891 C 71.321381 48.74047 75.1449 46.637472 79.056641 46.857422 z M 24.832031 177.5293 C 22.339704 177.38283 19.791656 178.18598 17.78125 179.97266 C 13.755753 183.55076 13.391512 189.71858 16.96875 193.74219 C 22.108117 199.52651 23.851603 208.88479 24.613281 220.16602 C 25.375012 231.44802 25.177155 244.61847 26.617188 257.97852 C 28.05722 271.33856 31.136684 284.89919 38.486328 296.94922 C 45.835973 308.99925 57.460435 319.5203 75.888672 326.78906 C 99.894217 336.24108 124.30069 337.20264 148.75 328.28906 L 149.04492 328.18164 L 149.07617 327.87109 C 149.8881 319.96943 151.84823 312.45569 154.58008 305.4082 L 155.0625 304.16406 L 153.88086 304.78516 C 134.11088 315.17323 113.97804 317.64771 93.6875 312.14258 C 74.557492 306.95365 63.108021 298.37559 56.138672 287.88867 C 49.169323 277.40175 46.676594 264.96248 45.615234 252.03516 C 44.553875 239.10784 44.927863 225.70745 43.632812 213.33203 C 42.337762 200.95661 39.366053 189.57926 31.548828 180.7832 C 29.760634 178.77076 27.324359 177.67576 24.832031 177.5293 z M 487.18164 177.5332 C 484.68751 177.68054 482.24941 178.7768 480.46484 180.78516 C 472.64763 189.58222 469.67684 200.96058 468.38281 213.33594 C 467.08878 225.7113 467.46289 239.1103 466.40234 252.03711 C 465.3418 264.96392 462.84885 277.40208 455.87891 287.88867 C 448.90896 298.37527 437.45945 306.95315 418.32617 312.14258 C 398.03967 317.64769 377.9038 315.17323 358.13281 304.78516 L 356.95312 304.16406 L 357.43555 305.4082 C 360.16742 312.45775 362.12852 319.97241 362.93945 327.875 L 362.9707 328.18555 L 363.26562 328.29297 C 406.07837 343.90081 456.62161 328.04455 475.08008 294.14453 C 485.04672 275.86673 486.13584 255.0534 486.71484 236.6582 C 487.29385 218.263 487.42617 202.31298 495.04492 193.74023 C 498.614 189.72358 498.25006 183.54272 494.23242 179.97266 C 492.22452 178.1875 489.67577 177.38586 487.18164 177.5332 z M 24.773438 178.52148 C 27.00811 178.65277 29.191975 179.63671 30.800781 181.44727 C 38.417056 190.01721 41.353504 201.15651 42.638672 213.4375 C 43.92384 225.71849 43.551625 239.11488 44.619141 252.11719 C 45.686656 265.11949 48.196521 277.74267 55.306641 288.44141 C 62.41676 299.14014 74.123789 307.87185 93.425781 313.10742 C 113.59076 318.57849 133.66524 316.19859 153.29102 306.16992 C 150.78581 312.8712 148.94016 319.96617 148.14062 327.43359 C 124.00399 336.16172 99.980619 335.19888 76.255859 325.85742 C 58.000096 318.65669 46.580449 308.29899 39.339844 296.42773 C 32.099238 284.55648 29.042796 271.15168 27.611328 257.87109 C 26.17986 244.59051 26.375395 231.44514 25.609375 220.09961 C 24.843355 208.75408 23.13561 199.17394 17.716797 193.07617 C 14.498395 189.45618 14.823954 183.94075 18.445312 180.7207 C 20.253907 179.11338 22.538765 178.3902 24.773438 178.52148 z M 487.24023 178.52734 C 489.4771 178.39518 491.76326 179.1139 493.56836 180.71875 L 493.56836 180.7207 C 497.18072 183.93064 497.50775 189.46483 494.29883 193.07617 C 486.28058 202.09843 486.29529 218.2479 485.7168 236.62695 C 485.1383 255.006 484.02953 275.64182 474.20117 293.66602 C 456.08545 326.93656 406.18786 342.72169 363.875 327.4375 C 363.07641 319.96962 361.22959 312.87445 358.72461 306.17188 C 378.35069 316.19962 398.42753 318.57831 418.58789 313.10742 C 437.89312 307.87135 449.60215 299.13984 456.71289 288.44141 C 463.82363 277.74297 466.33369 265.12096 467.40039 252.11914 C 468.46709 239.11732 468.0928 225.72037 469.37695 213.43945 C 470.66111 201.15853 473.59465 190.02016 481.21094 181.44922 C 482.81538 179.64358 485.00336 178.65951 487.24023 178.52734 z M 108.53711 240.63477 L 107.73828 241.21289 C 117.763 261.70282 135.60719 278.08143 157.84375 285.74609 L 158.08789 285.83008 L 158.29688 285.67969 C 162.96655 282.35738 167.7838 278.62655 173.63867 273.02148 L 174.37891 272.3125 L 173.36523 272.16602 C 148.54573 268.56935 123.52057 255.19774 108.53711 240.63477 z M 403.48047 240.63477 C 388.21654 255.46928 362.83472 268.66138 338.64844 272.16602 L 337.63477 272.3125 L 338.375 273.02148 C 343.56276 277.98648 348.7148 282.18529 353.7207 285.68359 L 353.92969 285.82812 L 354.16992 285.74609 C 376.40651 278.08143 394.25063 261.70177 404.27734 241.21289 L 403.48047 240.63477 z M 401.99609 243.28125 C 391.92066 262.26765 375.01678 277.41784 354.08398 284.70508 C 349.42698 281.43521 344.63811 277.51545 339.81055 272.96094 C 362.87136 269.37133 386.62927 257.27263 401.99609 243.28125 z M 110.02344 243.29297 C 125.124 257.04934 148.58593 269.2898 172.20312 272.96094 C 166.83076 278.02958 162.29567 281.58834 157.92969 284.70312 C 137.00105 277.41714 120.09769 262.2749 110.02344 243.29297 z M 256.00781 293.41797 C 236.61511 293.41797 219.14249 304.03616 209.93945 325.35547 L 210.72266 325.93359 C 223.77426 314.7732 239.51016 308.57227 256.00781 308.57227 C 272.50649 308.57227 288.23943 314.77218 301.29102 325.93555 L 302.07422 325.35742 C 292.81869 303.9207 275.04695 293.41797 256.00781 293.41797 z M 256.00781 294.41797 C 274.04944 294.41797 290.79 304.05608 300.13086 323.75 C 287.27415 313.37886 272.01123 307.57227 256.00781 307.57227 C 240.0028 307.57227 224.73498 313.38224 211.87695 323.75391 C 221.15442 304.15474 237.62266 294.41797 256.00781 294.41797 z M 59.365234 334.61719 L 58.769531 335.4043 C 83.077432 360.87106 119.99009 367.66919 150.7207 355.52344 L 151.12695 355.36328 L 151.02148 354.9375 C 150.06541 351.10424 149.42244 347.33259 149.05078 343.62695 L 148.99023 343.01562 L 148.4043 343.20117 C 116.61235 353.24131 84.309649 347.81128 59.365234 334.61719 z M 452.65039 334.61719 C 444.6046 338.87292 435.8948 342.09444 427.09961 344.48047 C 427.09901 344.48063 427.09825 344.48031 427.09766 344.48047 C 405.49341 350.33749 384.06475 349.6539 363.61133 343.19922 L 363.02344 343.01562 L 362.96289 343.62695 C 362.59124 347.33251 361.94731 351.10409 360.99219 354.9375 L 360.88672 355.36328 L 361.29492 355.52344 C 392.03746 367.67014 428.94223 360.86702 453.24609 335.4043 L 452.65039 334.61719 z M 450.48438 336.68945 C 426.57731 360.078 391.50532 366.18487 362.04492 354.71289 C 362.90007 351.19158 363.48814 347.72222 363.85547 344.30664 C 384.31726 350.65698 405.76627 351.29932 427.35938 345.44531 C 427.35997 345.44515 427.36073 345.44547 427.36133 345.44531 C 435.29021 343.2943 443.09149 340.34315 450.48438 336.68945 z M 61.640625 336.79688 C 86.263222 349.02455 117.38437 353.84092 148.15625 344.29492 C 148.52339 347.71415 149.11184 351.18749 149.96875 354.71289 C 120.56518 366.16621 85.549266 360.09967 61.640625 336.79688 z "
         style="color:#000000;font-style:normal;font-variant:normal;font-weight:normal;font-stretch:normal;font-size:medium;line-height:normal;font-family:sans-serif;font-variant-ligatures:normal;font-variant-position:normal;font-variant-caps:normal;font-variant-numeric:normal;font-variant-alternates:normal;font-variant-east-asian:normal;font-feature-settings:normal;font-variation-settings:normal;text-indent:0;text-align:start;text-decoration:none;text-decoration-line:none;text-decoration-style:solid;text-decoration-color:#000000;letter-spacing:normal;word-spacing:normal;text-transform:none;writing-mode:lr-tb;direction:ltr;text-orientation:mixed;dominant-baseline:auto;baseline-shift:baseline;text-anchor:start;white-space:normal;shape-padding:0;shape-margin:0;inline-size:0;clip-rule:nonzero;display:inline;overflow:visible;visibility:visible;isolation:auto;mix-blend-mode:normal;color-interpolation:sRGB;color-interpolation-filters:linearRGB;solid-color:#000000;solid-opacity:1;vector-effect:none;fill-opacity:1;fill-rule:nonzero;stroke-width:1;stroke-linecap:butt;stroke-linejoin:miter;stroke-miterlimit:4;stroke-dasharray:none;stroke-dashoffset:0;stroke-opacity:1;color-rendering:auto;image-rendering:auto;shape-rendering:auto;text-rendering:auto;enable-background:accumulate;stop-color:#000000;stop-opacity:1;stroke:none;fill:none" />
    </g>
    <path
       style="fill:#192e5b;fill-opacity:1"
       id="path4"
       d="m211.95 186.154c-2.221 3.497-1.186 8.131 2.311 10.352 3.496 2.22 8.131 1.185 10.352-2.312 2.37-3.73 7.749-3.728 10.115-.001 2.222 3.499 6.854 4.532 10.352 2.313 3.497-2.22 4.532-6.854 2.312-10.352-8.263-13.017-27.189-12.997-35.442 0z" />
    <path
       style="fill:#192e5b;fill-opacity:1"
       id="path6"
       d="m264.623 186.154c-2.221 3.497-1.186 8.131 2.311 10.352 3.496 2.22 8.131 1.185 10.352-2.312 2.37-3.73 7.749-3.728 10.115-.001 2.222 3.499 6.854 4.532 10.352 2.313 3.497-2.22 4.532-6.854 2.312-10.352-8.264-13.017-27.189-12.997-35.442 0z" />
  </g>
  <text
     inkscape:export-ydpi="3"
     inkscape:export-xdpi="3"
     y="0"
     x="-1.159668e-06"
     transform="matrix(3.3221616,0,0,3.3221616,-725.73537,-1180.3679)"
     style="font-style:normal;font-variant:normal;font-weight:normal;font-stretch:normal;font-size:120.403px;line-height:1.25;font-family:'DejaVu Sans Mono';-inkscape-font-specification:'DejaVu Sans Mono';text-align:start;letter-spacing:4.51511px;word-spacing:0px;white-space:pre;shape-inside:url(#rect842);fill:#f1a108;fill-opacity:0.9518072;stroke:#192e5b;stroke-opacity:1"
     id="text840"
     xml:space="preserve"><tspan
       x="221.70117"
       y="470.1689"><tspan
         style="font-style:normal;font-variant:normal;font-weight:800;font-stretch:normal;font-size:120.403px;font-family:'JetBrains Mono';-inkscape-font-specification:'JetBrains Mono Ultra-Bold';text-align:start;text-anchor:start;fill:#f1a108;fill-opacity:0.951807;stroke:#192e5b;stroke-opacity:1">QL</tspan></tspan></text>
</svg>
